<svg xmlns="http://www.w3.org/2000/svg" viewBox="0 0 80 80" fill="none">
  <rect width="80" height="80" rx="16" fill="#F1F5F9"/>
  <!-- Antennas -->
  <line x1="26" y1="20" x2="26" y2="44" stroke="#134074" stroke-width="2.5" stroke-linecap="round"/>
  <line x1="40" y1="16" x2="40" y2="44" stroke="#134074" stroke-width="2.5" stroke-linecap="round"/>
  <line x1="54" y1="20" x2="54" y2="44" stroke="#134074" stroke-width="2.5" stroke-linecap="round"/>
  <!-- Signal Waves -->
  <path d="M33 26C37 23 43 23 47 26" stroke="#ECA72C" stroke-width="1.5" stroke-linecap="round" fill="none"/>
  <path d="M30 21C36 17 44 17 50 21" stroke="#ECA72C" stroke-width="1.5" stroke-linecap="round" stroke-dasharray="2 2" fill="none"/>
  <!-- Router Chassis -->
  <rect x="16" y="44" width="48" height="18" rx="4" fill="#0B2545" stroke="#134074" stroke-width="2"/>
  <!-- LED Indicators -->
  <circle cx="24" cy="53" r="1.5" fill="#10B981"/>
  <circle cx="29" cy="53" r="1.5" fill="#10B981"/>
  <circle cx="34" cy="53" r="1.5" fill="#10B981"/>
  <circle cx="39" cy="53" r="1.5" fill="#10B981"/>
  <circle cx="44" cy="53" r="1.5" fill="#ECA72C"/>
  <circle cx="56" cy="53" r="2" fill="#38BDF8"/>
  <!-- Stand Feet -->
  <rect x="20" y="62" width="6" height="3" rx="1" fill="#334155"/>
  <rect x="54" y="62" width="6" height="3" rx="1" fill="#334155"/>
</svg>
